PathFileType	4	(X/Y/Z)	D:\TRACE\v60_Jaco2_6-2-23\BothDRS_Motion1_8-platform.trc
DataRate	CameraRate	NumFrames	NumMarkers	Units	OrigDataRate	OrigDataStartFrame	OrigNumFrames
100.00	100.00	      60	5	mm	100.00	4688	      7500
Frame#	Time	Left_Front			Right_Front			Left_Aft			Right_Aft			Post			
		X1	Y1	Z1	X2	Y2	Z2	X3	Y3	Z3	X4	Y4	Z4	X5	Y5	Z5	

4688	46.870	-754.26910	1.32610	-640.98975	815.66180	3.10705	-646.05835	-663.36975	13.16296	494.27002	779.67072	12.49760	503.85037	31.38474	1297.28870	-979.20996	
4689	46.880	-753.91486	1.04132	-641.17438	816.13007	2.71689	-646.44580	-662.18726	12.78848	493.93011	780.19049	12.75763	503.71069	31.82623	1296.63757	-979.84772	
4690	46.890	-753.37793	0.42977	-641.21423	816.60449	2.23723	-646.38635	-661.61530	12.94813	493.80386	780.65460	12.92230	503.71561	32.30353	1295.96997	-980.51843	
4691	46.900	-752.93262	0.17591	-641.23755	816.78876	2.00152	-646.46271	-661.20288	13.05206	493.75146	780.92798	13.25529	503.39111	32.42825	1295.47339	-980.85480	
4692	46.910	-752.73987	-0.02709	-641.32874	817.24329	1.65089	-646.44055	-660.47522	13.00880	493.70859	781.45844	13.59240	503.52835	33.49848	1294.96423	-981.67841	
4693	46.920	-752.47498	-0.24786	-641.37720	817.67462	1.25259	-646.55707	-660.28021	13.52962	493.61215	781.84363	13.78284	503.44342	33.53699	1294.55005	-982.05695	
4694	46.930	-752.00549	-0.60831	-641.63971	817.79248	1.00497	-646.72662	-660.18213	13.82620	493.53616	782.11877	14.00595	503.34024	33.51330	1294.01819	-982.51855	
4695	46.940	-751.58057	-0.85940	-641.84991	818.21039	0.69422	-646.73853	-660.09424	14.12393	493.46078	782.31183	14.30284	503.19144	33.80966	1293.46960	-982.93848	
4696	46.950	-751.44775	-1.55901	-641.89240	818.37836	0.29766	-646.78632	-659.83484	14.36472	493.39343	782.67242	14.68056	503.16928	34.43215	1292.81653	-983.65485	
4697	46.960	-751.18604	-1.92654	-641.93744	818.69922	-0.21339	-646.86353	-659.34082	14.57492	493.29382	782.94867	14.90401	503.05780	34.12002	1292.31750	-984.82343	
4698	46.970	-750.99976	-2.20298	-641.96252	818.97198	-0.58590	-646.97406	-659.05975	14.81982	493.21896	783.05145	15.12248	502.69739	34.52260	1291.89282	-985.86627	
4699	46.980	-751.03754	-2.68495	-641.93561	818.99554	-0.90479	-647.00720	-658.94409	15.07722	493.05606	783.32703	15.37267	502.89249	34.61443	1291.39624	-986.59515	
4700	46.990	-750.86786	-3.07762	-641.99609	819.20203	-1.23959	-647.11884	-658.87781	15.20859	492.98312	783.32825	15.54979	502.82709	35.56511	1290.62219	-987.81061	
4701	47.000	-750.70978	-3.41828	-642.05420	819.33752	-1.60861	-647.21564	-658.92651	15.63190	492.63956	783.25421	15.77163	502.74466	35.26708	1290.04358	-988.56274	
4702	47.010	-750.59906	-3.82532	-642.29181	819.50702	-1.86003	-647.27472	-658.98590	16.06123	492.16925	783.33008	16.08713	502.63748	35.03833	1289.77136	-989.46985	
4703	47.020	-750.58020	-4.00572	-642.29529	819.53351	-2.01117	-647.34290	-658.22241	15.36325	492.80350	783.41602	16.42181	502.45404	35.18387	1289.26343	-990.37054	
4704	47.030	-750.63098	-4.10457	-642.29956	819.44904	-2.08800	-647.52948	-658.19312	15.85723	492.70148	783.51440	16.62056	502.36273	35.33377	1288.44812	-990.90906	
4705	47.040	-750.57263	-4.39978	-642.30408	819.61829	-2.44567	-647.59607	-658.22705	16.25533	492.59601	783.58636	16.76157	502.27640	35.55718	1287.69519	-991.47693	
4706	47.050	-750.67407	-5.33587	-642.39441	819.68933	-3.37258	-647.56073	-658.25543	16.54999	492.44510	783.47229	16.91948	502.18555	35.43312	1287.19812	-992.57422	
4707	47.060	-750.67072	-6.19685	-642.49768	819.56848	-3.83618	-647.77332	-658.36450	16.86005	492.21765	783.52502	17.37830	502.13412	35.27961	1286.72192	-992.88092	
4708	47.070	-750.63177	-6.40294	-642.56958	819.50250	-4.14292	-647.83209	-658.48529	17.24237	492.05667	783.60736	17.73343	502.03207	35.02425	1286.20349	-993.39948	
4709	47.080	-750.69000	-6.75359	-642.62561	819.46014	-4.42510	-647.90674	-658.53113	17.55515	491.92914	783.38428	17.97162	502.02283	35.29366	1285.54260	-994.49017	
4710	47.090	-750.61285	-6.93065	-642.58142	819.56091	-4.68767	-648.06628	-658.58643	17.99460	491.96225	783.38593	18.31328	501.88611	35.10124	1284.91125	-995.23718	
4711	47.100	-750.58008	-7.29412	-642.62347	819.68030	-4.95866	-648.09198	-658.53870	18.15862	491.91589	784.60492	19.08223	501.12952	35.30811	1284.55627	-996.41595	
4712	47.110	-750.56750	-7.69047	-642.83557	819.56702	-5.26421	-648.13159	-658.48767	18.29516	491.93030	783.34448	18.52018	501.56714	35.10206	1283.79797	-997.57697	
4713	47.120	-750.60815	-8.01514	-643.12384	819.47803	-5.71775	-648.19739	-658.37006	18.35030	491.84265	783.85168	18.95398	501.38910	35.34256	1283.24927	-998.21716	
4714	47.130	-750.68176	-8.18651	-643.14996	819.27576	-6.20509	-648.36115	-658.49530	18.46509	491.84937	783.55560	19.12300	501.34155	35.12161	1282.88879	-999.38464	
4715	47.140	-751.01172	-8.36627	-643.14221	818.92462	-6.29333	-648.44849	-658.70276	18.60084	491.87744	782.57135	18.90430	501.67184	34.70084	1282.51196	-1000.19196	
4716	47.150	-751.32025	-8.55719	-643.20313	818.69537	-6.39624	-648.51202	-658.75580	18.56141	491.70273	782.96234	19.51250	501.44125	34.30974	1282.14429	-1001.07294	
4717	47.160	-751.66205	-8.91557	-643.40851	818.47742	-6.85095	-648.53174	-659.52905	19.32307	491.46976	782.69202	19.77516	501.40543	34.19680	1281.72925	-1001.66864	
4718	47.170	-751.88208	-9.34506	-643.48322	818.27368	-7.36535	-648.43689	-659.81879	19.54412	491.28433	782.50018	19.94789	501.20352	33.79579	1281.16040	-1002.23645	
4719	47.180	-751.92920	-9.99594	-643.31439	818.00989	-7.75082	-648.54639	-660.02991	19.73589	491.14468	782.20935	20.21076	501.15308	33.97401	1280.43726	-1002.40570	
4720	47.190	-752.06140	-10.33844	-643.44098	817.72180	-8.12108	-648.71057	-660.21411	19.93650	491.10602	782.03571	20.49530	501.12125	33.80630	1279.87659	-1002.57257	
4721	47.200	-752.47101	-10.60179	-643.56976	817.49310	-8.37787	-648.87476	-660.46851	20.25345	491.00323	781.86841	20.80070	501.01892	33.43074	1279.34631	-1002.90863	
4722	47.210	-752.74976	-10.93416	-643.65778	817.27197	-8.56050	-648.84332	-660.75452	20.66875	491.01395	781.59442	21.06270	500.92776	33.08670	1278.75366	-1003.39948	
4723	47.220	-753.01538	-11.16674	-643.77252	816.92828	-8.89102	-649.02527	-661.51398	21.40874	491.20786	780.95398	21.28759	500.72986	32.68267	1278.40015	-1004.21149	
4724	47.230	-753.36511	-11.60843	-643.89368	816.64417	-9.17374	-648.96875	-661.68109	21.34678	491.04916	780.62286	21.44904	500.69412	32.52280	1277.91711	-1005.09900	
4725	47.240	-753.71710	-12.01822	-643.92743	816.30469	-9.67245	-648.96350	-662.08868	21.35997	490.88907	780.23572	21.69880	500.57541	31.90095	1277.44495	-1005.98474	
4726	47.250	-754.18909	-12.27474	-643.91742	815.71973	-10.00716	-649.17609	-662.53693	21.59450	490.80197	779.89435	21.88396	500.48972	31.48130	1276.84717	-1006.85834	
4727	47.260	-754.69501	-12.35985	-643.85968	815.15735	-10.25179	-649.12885	-662.88898	21.74749	490.80124	779.63208	22.09774	500.32626	31.19861	1276.53699	-1008.06500	
4728	47.270	-755.13965	-12.50316	-644.01044	814.79443	-10.46445	-649.17279	-663.29486	21.87271	490.71359	779.29620	22.29378	500.26697	30.70260	1276.19080	-1008.76050	
4729	47.280	-755.46332	-12.91958	-644.10107	814.58478	-10.63568	-649.24524	-663.57684	22.00296	490.57745	778.88440	22.54018	500.19855	30.15401	1275.74194	-1009.42328	
4730	47.290	-756.06018	-13.29934	-644.27405	814.16675	-11.02541	-649.22467	-664.01929	22.20667	490.53259	778.30676	22.72642	500.22180	29.74257	1275.20776	-1010.23859	
4731	47.300	-756.33093	-13.48335	-644.37683	813.81036	-11.41775	-649.29590	-664.34039	22.37268	490.51962	777.87122	22.88327	500.17438	29.56166	1274.63928	-1010.77191	
4732	47.310	-756.77704	-13.86938	-644.32941	813.35138	-11.69714	-649.45502	-664.95154	22.61505	490.42465	777.26501	23.14948	500.20111	29.17398	1274.23755	-1011.38983	
4733	47.320	-757.13641	-14.17263	-644.40259	813.02087	-12.06940	-649.36975	-665.45386	22.70732	490.31619	776.76331	23.32466	500.10803	28.58361	1273.93091	-1011.84937	
4734	47.330	-757.70215	-14.67655	-644.33960	812.36121	-12.28844	-649.41522	-665.98071	22.94866	490.20239	776.42670	23.54700	499.98444	28.04465	1273.42297	-1012.30188	
4735	47.340	-758.21033	-15.04478	-644.31030	811.74365	-12.44217	-649.48474	-666.38062	23.20341	490.08008	775.70294	23.60806	499.95789	27.66047	1272.94177	-1012.44617	
4736	47.350	-758.71783	-15.31529	-644.23248	811.24829	-12.74566	-649.53784	-666.67474	23.36074	490.06262	775.03662	23.67206	499.97269	27.11179	1272.63879	-1012.64063	
4737	47.360	-759.26331	-15.42658	-644.36603	810.70862	-13.11564	-649.67645	-667.18127	23.51592	489.88077	774.55658	23.77648	500.06015	26.47024	1272.28162	-1012.88489	
4738	47.370	-759.81213	-15.54692	-644.54968	810.37347	-13.34843	-649.76624	-668.02283	23.75605	489.80032	774.58502	24.26621	499.52438	25.76485	1271.60034	-1013.76990	
4739	47.380	-760.45386	-15.75911	-644.70142	809.78680	-13.51609	-649.88159	-668.55377	23.83047	489.77512	773.75989	24.38129	499.39551	25.39650	1271.17090	-1014.03839	
4740	47.390	-761.02301	-16.08010	-644.71503	808.88263	-13.82817	-650.05664	-668.99866	24.02767	489.82278	773.11133	24.47325	499.37903	24.83476	1270.83398	-1014.70959	
4741	47.400	-761.47650	-16.25264	-644.89783	808.46973	-13.96884	-649.93011	-669.47815	24.22128	489.76022	772.44458	24.80539	499.40845	24.34023	1270.49951	-1015.86261	
4742	47.410	-761.95984	-16.46186	-644.82294	807.89642	-14.38236	-649.86768	-670.16486	24.33084	489.58011	772.07141	24.95054	499.26169	24.20473	1270.16541	-1016.50623	
4743	47.420	-762.78986	-16.60113	-644.72388	807.32330	-14.36057	-649.90289	-670.85327	24.44255	489.52161	771.52655	25.09068	499.24728	23.16015	1269.76062	-1017.38489	
4744	47.430	-763.41168	-16.65030	-644.54810	806.81830	-14.47761	-649.97156	-671.41858	24.77843	489.62128	770.75140	25.19579	499.16693	22.31438	1269.55432	-1017.98218	
4745	47.440	-763.91809	-16.86636	-644.89545	806.19690	-15.24886	-650.19281	-671.95410	24.95305	489.59671	770.25708	25.48189	499.11926	21.55828	1269.19922	-1018.62476	
4746	47.450	-764.24548	-17.23735	-645.08087	805.56940	-15.68466	-650.03058	-672.62714	25.01733	489.57288	769.72064	25.58414	499.18488	20.94580	1269.07837	-1019.09290	
4747	47.460	-765.06366	-17.80504	-645.10321	804.78625	-15.69785	-650.09998	-673.32745	24.94993	489.52716	769.41180	25.72908	499.15479	20.40894	1268.86707	-1019.30994	
